<?xml version="1.0" encoding="UTF-8" standalone="no"?>
<!-- Created with Inkscape (http://www.inkscape.org/) -->

<svg
   xmlns:dc="http://purl.org/dc/elements/1.1/"
   xmlns:cc="http://creativecommons.org/ns#"
   xmlns:rdf="http://www.w3.org/1999/02/22-rdf-syntax-ns#"
   xmlns:svg="http://www.w3.org/2000/svg"
   xmlns="http://www.w3.org/2000/svg"
   xmlns:xlink="http://www.w3.org/1999/xlink"
   xmlns:sodipodi="http://sodipodi.sourceforge.net/DTD/sodipodi-0.dtd"
   xmlns:inkscape="http://www.inkscape.org/namespaces/inkscape"
   width="210mm"
   height="297mm"
   viewBox="0 0 210 297"
   version="1.1"
   id="svg4919"
   inkscape:version="0.92.4 (5da689c313, 2019-01-14)"
   sodipodi:docname="omegaconf.svg">
  <defs
     id="defs4913">
    <linearGradient
       inkscape:collect="always"
       id="linearGradient5586">
      <stop
         style="stop-color:#ffffff;stop-opacity:1;"
         offset="0"
         id="stop5582" />
      <stop
         style="stop-color:#ffffff;stop-opacity:0;"
         offset="1"
         id="stop5584" />
    </linearGradient>
    <linearGradient
       id="linearGradient5573"
       inkscape:collect="always">
      <stop
         id="stop5577"
         offset="0"
         style="stop-color:#b3b3b3;stop-opacity:1;" />
      <stop
         id="stop5579"
         offset="1"
         style="stop-color:#1f1f1f;stop-opacity:0" />
    </linearGradient>
    <linearGradient
       inkscape:collect="always"
       xlink:href="#linearGradient5573"
       id="linearGradient5575"
       x1="184.1487"
       y1="49.909325"
       x2="217.29012"
       y2="37.882198"
       gradientUnits="userSpaceOnUse" />
    <radialGradient
       inkscape:collect="always"
       xlink:href="#linearGradient5586"
       id="radialGradient5590"
       cx="206.74374"
       cy="46.958618"
       fx="206.74374"
       fy="46.958618"
       r="2.5390604"
       gradientUnits="userSpaceOnUse"
       gradientTransform="matrix(2.0125987,0.46002056,-0.42272909,1.8494479,-189.49769,-134.99528)" />
  </defs>
  <sodipodi:namedview
     id="base"
     pagecolor="#ffffff"
     bordercolor="#666666"
     borderopacity="1.0"
     inkscape:pageopacity="0.0"
     inkscape:pageshadow="2"
     inkscape:zoom="0.98994949"
     inkscape:cx="647.23458"
     inkscape:cy="507.91832"
     inkscape:document-units="mm"
     inkscape:current-layer="layer1"
     showgrid="false"
     inkscape:snap-global="false"
     showguides="false"
     inkscape:window-width="2560"
     inkscape:window-height="1537"
     inkscape:window-x="-8"
     inkscape:window-y="-8"
     inkscape:window-maximized="1" />
  <metadata
     id="metadata4916">
    <rdf:RDF>
      <cc:Work
         rdf:about="">
        <dc:format>image/svg+xml</dc:format>
        <dc:type
           rdf:resource="http://purl.org/dc/dcmitype/StillImage" />
        <dc:title></dc:title>
      </cc:Work>
    </rdf:RDF>
  </metadata>
  <g
     inkscape:label="Layer 1"
     inkscape:groupmode="layer"
     id="layer1">
    <g
       id="g5603"
       transform="translate(-278.94643,-80.508929)">
      <path
         sodipodi:nodetypes="scccssccscsscsccccccccccscscccsscccsscssccccccccsccscsccssccccccccccs"
         inkscape:connector-curvature="0"
         id="path5544"
         d="m 343.32913,106.72118 c -3.68515,0 -6.78026,1.15688 -9.50123,3.5512 -0.74504,0.67571 -1.68616,1.79991 -2.12183,2.33216 -0.91664,1.11984 -3.05184,4.88067 -3.99149,8.00726 -0.65957,2.19461 -0.71668,2.75453 -0.73018,7.14375 -0.0153,4.973 0.13824,5.98976 1.42162,9.41544 1.29202,3.44879 4.17541,7.01817 7.15511,8.85734 l 1.52032,0.93844 0.15503,5.34335 c 0.20679,7.1271 1.04938,11.20967 3.50625,16.98501 2.83527,6.66482 6.54206,11.73981 12.90154,17.66403 6.03288,5.61999 6.79545,6.41321 6.79545,7.06986 0,0.61279 -5.3e-4,0.61265 -2.84427,0.45165 -3.08985,-0.17494 -6.7526,-0.98004 -10.51719,-2.312 -2.46735,-0.87298 -6.58687,-2.83414 -7.89254,-3.7574 -1.52233,-1.07646 -2.81418,-0.42728 -4.08141,2.05052 -0.47084,0.92063 -0.71225,1.88612 -0.79375,3.175 -0.26517,4.19506 2.2485,7.50318 6.32003,8.31784 0.63568,0.12718 8.02888,0.21235 16.42949,0.18965 l 15.274,-0.0408 0.72916,-0.72915 c 0.55433,-0.55446 0.72228,-0.96897 0.70228,-1.73065 -0.0375,-1.42876 -0.60903,-2.37316 -3.19929,-5.28598 -4.89801,-5.50795 -9.16968,-11.89401 -12.51707,-18.71254 -4.72363,-9.62199 -6.59713,-17.58493 -6.25698,-26.59114 0.31661,-8.38284 2.20213,-14.75058 6.10196,-20.60858 4.86766,-7.3118 11.20446,-11.35379 19.15645,-12.21888 12.52523,-1.36261 23.56311,6.19246 28.44012,19.46599 1.91193,5.20364 2.41792,8.46996 2.41847,15.61093 0,5.30962 -0.0616,6.1113 -0.70694,9.12813 -2.48031,11.59561 -8.71458,23.33807 -18.03508,33.97001 -2.66675,3.04197 -3.06286,3.71365 -3.06286,5.19245 0,1.41955 0.32992,1.99136 1.35651,2.34921 1.11518,0.38881 28.50412,0.40021 30.92265,0.0129 4.41182,-0.70643 6.83016,-3.33501 7.08898,-7.70495 0.10244,-1.72998 0.0308,-2.21707 -0.48422,-3.28093 -0.86786,-1.79276 -2.02266,-3.02204 -2.83858,-3.02204 -0.37237,0 -1.22618,0.35189 -1.89703,0.78237 -4.67421,2.99943 -13.79453,5.83221 -18.7782,5.83221 -2.02149,0 -2.14095,-0.0325 -2.14095,-0.57516 0,-0.60421 1.06616,-1.7059 6.80373,-7.03057 6.98905,-6.48611 11.37751,-12.97904 14.09113,-20.84887 1.75453,-5.08833 2.15233,-7.43931 2.31251,-13.6648 l 0.14107,-5.47408 1.65055,-1.06764 c 2.11582,-1.36832 4.59256,-4.01943 5.841,-6.25181 4.28672,-7.66538 3.64469,-18.99043 -1.49191,-26.31312 -0.90649,-1.10074 -1.75204,-2.23936 -2.81482,-3.19101 -2.77373,-2.43538 -5.44759,-3.4246 -9.25473,-3.4246 h -2.50939 l 1.35856,1.07384 c 1.46214,1.15576 3.33174,3.71597 4.32946,5.4746 0.50561,0.89122 0.89217,1.84941 1.09915,2.57969 0.75089,2.6051 0.93327,3.742 0.93327,5.82083 0,2.93938 -0.51186,5.0128 -1.68413,6.82541 -0.88728,1.372 -2.1872,2.75746 -2.389,2.5461 -0.0584,-0.0612 -0.54134,-0.85649 -1.07331,-1.76733 -5.60699,-9.60031 -16.40184,-17.05677 -28.05876,-19.38124 -2.35654,-0.46991 -6.08931,-0.74333 -9.34258,-0.74156 -1.47877,8e-4 -2.85863,0.0586 -3.96513,0.18035 -13.67325,1.50477 -25.07451,8.48377 -31.81408,19.47374 -1.34815,2.19841 -1.37838,2.22641 -1.98593,1.82831 -0.88666,-0.58097 -1.90144,-1.99417 -2.68717,-3.74189 -0.93178,-2.07261 -1.14042,-5.97241 -0.47956,-8.96224 0.25298,-1.14452 0.56861,-2.28732 0.70177,-2.5399 0.34541,-1.04213 0.55696,-1.41924 1.1405,-2.52284 1.06614,-2.02887 2.92316,-4.26739 4.47052,-5.3883 l 1.04594,-0.75758 z"
         style="fill:#f7c099;fill-opacity:1;stroke-width:0.26458332" />
      <path
         inkscape:connector-curvature="0"
         id="path5537"
         d="m 343.32913,106.72117 c -3.68515,0 -6.78026,1.15689 -9.50122,3.55121 l -1.29812,1.14205 3.17294,1.60868 c 1.74528,0.88452 3.2562,1.61461 3.35741,1.62161 0.1012,0.008 0.6077,-0.79227 1.12551,-1.77767 1.06614,-2.02887 2.92317,-4.26739 4.47053,-5.3883 l 1.04593,-0.75758 z m 70.77346,0 1.35857,1.07384 c 1.46213,1.15576 3.44105,3.6583 4.32945,5.4746 0.30251,0.61847 0.66928,1.12448 0.81494,1.12448 0.43612,0 6.24458,-2.95758 6.24458,-3.17965 0,-0.11283 -0.4427,-0.59393 -0.9834,-1.06867 -2.77374,-2.43537 -5.4476,-3.4246 -9.25474,-3.4246 z m -34.82733,2.43034 c -1.47877,8.1e-4 -2.85864,0.0586 -3.96514,0.18036 -13.67325,1.50477 -25.07451,8.48376 -31.81408,19.47374 -1.34815,2.19841 -1.37837,2.22641 -1.98592,1.82831 -0.88666,-0.58097 -1.90145,-1.99416 -2.68718,-3.74188 -0.93178,-2.07261 -1.14041,-5.97242 -0.47955,-8.96225 0.25298,-1.14452 0.5686,-2.28732 0.70176,-2.5399 0.21391,-0.40575 0.16271,-0.42886 -0.44338,-0.19843 -1.7294,0.65752 -4.20088,-0.0408 -5.46581,-1.5441 -0.38024,-0.45188 -0.75576,-0.9744 -0.83406,-1.16168 -0.44729,-1.06938 -3.39078,4.14475 -4.58732,8.12612 -0.65957,2.19461 -0.71668,2.75453 -0.73019,7.14375 -0.0153,4.97301 0.13825,5.98976 1.42162,9.41544 1.29203,3.44879 4.17542,7.01817 7.15512,8.85734 l 1.52032,0.93845 0.15503,5.34334 c 0.20679,7.1271 1.04937,11.20967 3.50624,16.98501 2.83527,6.66482 6.54206,11.73981 12.90154,17.66404 6.03288,5.61998 6.79545,6.4132 6.79545,7.06985 0,0.61279 -5.2e-4,0.61265 -2.84427,0.45165 -3.08985,-0.17494 -6.75259,-0.98004 -10.51718,-2.312 -2.46735,-0.87298 -6.58688,-2.83413 -7.89255,-3.75739 -1.52233,-1.07646 -2.81417,-0.42728 -4.0814,2.05052 -0.47084,0.92063 -0.71225,1.88612 -0.79375,3.175 -0.26517,4.19505 2.2485,7.50318 6.32003,8.31784 0.63568,0.12718 8.02887,0.21235 16.42948,0.18965 l 15.27401,-0.0408 0.72915,-0.72915 c 0.55433,-0.55445 0.72228,-0.96897 0.70228,-1.73065 -0.0375,-1.42876 -0.60902,-2.37317 -3.19928,-5.28598 -4.89801,-5.50796 -9.16969,-11.89401 -12.51707,-18.71255 -4.72364,-9.62198 -6.59713,-17.58491 -6.25698,-26.59114 0.31661,-8.38283 2.20212,-14.75057 6.10195,-20.60856 4.86766,-7.31181 11.20447,-11.3538 19.15646,-12.21889 12.52523,-1.36261 23.56311,6.19245 28.44012,19.46599 1.91193,5.20364 2.41793,8.46996 2.41846,15.61093 3.6e-4,5.30962 -0.0616,6.1113 -0.70694,9.12813 -2.48031,11.59562 -8.71456,23.33807 -18.03507,33.97002 -2.66675,3.04197 -3.06286,3.71365 -3.06286,5.19245 0,1.41954 0.32991,1.99135 1.3565,2.34921 1.11518,0.38881 28.50412,0.40018 30.92266,0.0129 4.4118,-0.70644 6.83017,-3.33503 7.08898,-7.70496 0.10245,-1.72999 0.0308,-2.21707 -0.48421,-3.28094 -0.86786,-1.79276 -2.02268,-3.02203 -2.83859,-3.02203 -0.37237,0 -1.22618,0.35189 -1.89704,0.78238 -4.67422,2.99943 -13.79453,5.8322 -18.77818,5.8322 -2.02151,0 -2.14096,-0.0325 -2.14096,-0.57516 0,-0.60421 1.06616,-1.7059 6.80372,-7.03058 6.98905,-6.48611 11.37751,-12.97904 14.09113,-20.84886 1.75453,-5.08833 2.15234,-7.4393 2.31252,-13.66479 l 0.14108,-5.47409 1.65054,-1.06763 c 2.11581,-1.36833 4.59257,-4.01944 5.84099,-6.25182 4.28673,-7.66538 3.64468,-18.99042 -1.4919,-26.31312 -1.11223,-1.58558 -1.56683,-1.93399 -1.56683,-1.20096 0,0.61056 -1.56576,2.23641 -2.72179,2.82618 -0.74701,0.38113 -1.42968,0.51041 -2.35387,0.447 -1.19526,-0.082 -1.28934,-0.0456 -1.14928,0.44029 0.75089,2.6051 0.93328,3.74201 0.93328,5.82083 0,2.93938 -0.51189,5.0128 -1.68414,6.82542 -0.88728,1.372 -2.1872,2.75746 -2.389,2.5461 -0.0584,-0.0612 -0.54135,-0.85649 -1.07332,-1.76733 -5.60698,-9.6003 -16.40183,-17.05678 -28.05875,-19.38125 -2.35654,-0.46991 -6.08931,-0.74333 -9.34258,-0.74156 z m 51.27025,13.66842 c 0.80494,-0.003 1.32851,0.0557 1.32344,0.20051 -0.0128,0.36542 -1.19717,1.14521 -2.36575,1.55752 -1.58549,0.55939 -3.92617,0.68699 -5.62498,0.30696 -1.7112,-0.3828 -2.08332,-0.62123 -1.51826,-0.97203 0.82155,-0.51005 5.77073,-1.08275 8.18555,-1.09296 z m -101.02845,0.046 c 3.29262,0.008 7.9039,0.77661 7.9039,1.31775 0,0.0995 -0.44648,0.31036 -0.99218,0.46871 -3.17992,0.92269 -7.42681,0.25632 -8.78293,-1.3777 -0.30748,-0.37049 -0.10965,-0.41376 1.87121,-0.40876 z m 12.55788,9.51984 c 0.37853,0 -0.9824,1.79444 -2.2288,2.93884 -1.58868,1.45866 -4.42121,2.91704 -6.7908,3.49591 -3.59843,0.87904 -3.99597,0.80661 -2.27221,-0.41238 0.94917,-0.67124 10.98252,-6.02237 11.29181,-6.02237 z m 75.3675,0.11265 c 0.21912,0.0291 0.9494,0.3716 1.7632,0.83354 0.93005,0.52793 2.98463,1.61052 4.56561,2.40554 3.08177,1.54971 5.72471,3.1952 5.72471,3.56464 0,0.25396 0.0435,0.25569 -1.56786,-0.0605 -2.93279,-0.5754 -6.25306,-2.04112 -8.17314,-3.60753 -1.14856,-0.93698 -2.62234,-2.87964 -2.3735,-3.1285 0.009,-0.009 0.0297,-0.0114 0.061,-0.007 z"
         style="fill:#ee8133;fill-opacity:1;stroke-width:0.26458332" />
      <g
         transform="translate(177.271,96.308332)"
         id="g5595">
        <circle
           style="opacity:1;fill:url(#linearGradient5575);fill-opacity:1;fill-rule:nonzero;stroke-width:0.26458332"
           id="path4947"
           cx="202.72394"
           cy="49.909325"
           r="18.575233" />
        <circle
           style="opacity:1;fill:#000000;fill-opacity:1;stroke-width:0.26458332"
           id="path4949"
           cx="202.72394"
           cy="49.909325"
           r="10.423512" />
        <circle
           style="opacity:1;fill:url(#radialGradient5590);fill-opacity:1;stroke-width:0.26458332"
           id="path4953"
           cx="206.74374"
           cy="46.958618"
           r="2.5390604" />
      </g>
    </g>
  </g>
</svg>
